<svg width="18" height="17" viewBox="0 0 18 17" fill="none" xmlns="http://www.w3.org/2000/svg">
<path id="Y&#196;&#177;ld&#196;&#177;z &#196;&#176;konu" d="M7.80978 0.849967C7.92247 0.626505 8.09686 0.438343 8.31323 0.306771C8.52959 0.175199 8.77929 0.105469 9.03408 0.105469C9.28886 0.105469 9.53856 0.175199 9.75493 0.306771C9.97129 0.438343 10.1457 0.626505 10.2584 0.849967L12.1558 4.60773L16.3978 5.2101C16.6499 5.24591 16.8868 5.35003 17.0816 5.51067C17.2764 5.67131 17.4213 5.88206 17.5 6.11908C17.5787 6.35609 17.5879 6.6099 17.5267 6.85179C17.4655 7.09368 17.3363 7.31399 17.1537 7.48778L14.084 10.4129L14.8092 14.5444C14.8523 14.7898 14.8244 15.0422 14.7286 15.2729C14.6328 15.5036 14.4729 15.7035 14.2669 15.85C14.061 15.9965 13.8173 16.0838 13.5634 16.1019C13.3094 16.1201 13.0553 16.0684 12.8298 15.9528L9.03322 14.0005L5.23833 15.9528C5.01283 16.0684 4.75873 16.1201 4.50477 16.1019C4.25081 16.0838 4.00711 15.9965 3.8012 15.85C3.5953 15.7035 3.4354 15.5036 3.33958 15.2729C3.24377 15.0422 3.21585 14.7898 3.25899 14.5444L3.98247 10.4129L0.912775 7.48778C0.730135 7.31388 0.600939 7.09344 0.539818 6.85143C0.478698 6.60942 0.488096 6.3555 0.566947 6.11844C0.645798 5.88139 0.790952 5.67066 0.98597 5.51012C1.18099 5.34958 1.41808 5.24565 1.67039 5.2101L5.91234 4.60939L7.80808 0.849967H7.80978Z" fill="#FF4500"/>
</svg>
