<svg width="14" height="13" viewBox="0 0 14 13" fill="none" xmlns="http://www.w3.org/2000/svg">
<path d="M12.8057 5.76434L10.1631 8.07059L10.9547 11.5042C10.9966 11.6837 10.9846 11.8715 10.9203 12.0443C10.856 12.217 10.7422 12.367 10.5932 12.4754C10.4441 12.5838 10.2664 12.6459 10.0823 12.6539C9.89811 12.6618 9.71569 12.6153 9.55783 12.5202L6.5631 10.7038L3.57482 12.5202C3.41695 12.6153 3.23454 12.6618 3.05039 12.6539C2.86624 12.6459 2.68852 12.5838 2.53946 12.4754C2.3904 12.367 2.27661 12.217 2.21231 12.0443C2.14801 11.8715 2.13605 11.6837 2.17794 11.5042L2.96837 8.0741L0.325208 5.76434C0.185409 5.64376 0.084319 5.4846 0.0346161 5.3068C-0.0150868 5.12901 -0.0111903 4.9405 0.0458169 4.76491C0.102824 4.58932 0.210404 4.43447 0.355067 4.31978C0.499729 4.20508 0.675034 4.13565 0.858997 4.1202L4.34298 3.81844L5.70294 0.574688C5.77396 0.404482 5.89375 0.259095 6.04723 0.156831C6.20071 0.0545672 6.38102 0 6.56544 0C6.74987 0 6.93018 0.0545672 7.08365 0.156831C7.23713 0.259095 7.35692 0.404482 7.42794 0.574688L8.792 3.81844L12.2748 4.1202C12.4588 4.13565 12.6341 4.20508 12.7787 4.31978C12.9234 4.43447 13.031 4.58932 13.088 4.76491C13.145 4.9405 13.1489 5.12901 13.0992 5.3068C13.0495 5.4846 12.9484 5.64376 12.8086 5.76434H12.8057Z" fill="#FFB499"/>
</svg>
